<svg xmlns="http://www.w3.org/2000/svg" width="121" height="46" viewBox="0 0 121 46" fill="none">
    <g clip-path="url(#clip0_2161_2829)">
    <path d="M62.3945 28.9272H53.1736C53.1325 28.9307 53.0913 28.9235 53.0537 28.9061C53.0161 28.8888 52.9834 28.862 52.9587 28.8282C52.9339 28.7943 52.9178 28.7546 52.912 28.7126C52.9062 28.6707 52.9108 28.6279 52.9254 28.5883L57.6367 12.2163C57.659 12.0924 57.7093 11.9756 57.7835 11.8753C57.8119 11.8753 57.8783 12.0296 57.9314 12.2163L62.6416 28.5883C62.6566 28.6278 62.6615 28.6706 62.6559 28.7126C62.6502 28.7546 62.6343 28.7945 62.6096 28.8284C62.5848 28.8623 62.5521 28.8892 62.5145 28.9065C62.4768 28.9238 62.4355 28.9309 62.3945 28.9272ZM27.7435 28.9272H18.5226C18.4816 28.9308 18.4403 28.9236 18.4027 28.9063C18.365 28.8891 18.3323 28.8622 18.3075 28.8284C18.2827 28.7945 18.2666 28.7547 18.2609 28.7127C18.2551 28.6707 18.2598 28.6279 18.2745 28.5883L22.9867 12.2163C23.0094 12.0927 23.0593 11.976 23.1326 11.8753C23.2058 11.976 23.2557 12.0927 23.2784 12.2163L27.9886 28.5886C28.0037 28.628 28.0087 28.6707 28.0033 28.7127C27.9978 28.7547 27.982 28.7945 27.9574 28.8285C27.9328 28.8624 27.9002 28.8893 27.8626 28.9067C27.8251 28.924 27.7838 28.9312 27.7428 28.9275M120.344 45.303L103.477 18.5518C103.426 18.4659 103.404 18.3657 103.412 18.2658C103.421 18.1659 103.46 18.0714 103.524 17.9959L119.059 0.767871C119.188 0.624493 119.14 0.50824 118.948 0.50824H103.929C103.713 0.520321 103.51 0.616241 103.359 0.776678L89.0432 17.9229C88.9189 18.0695 88.8183 18.0314 88.8183 17.8359V0.862283C88.8173 0.768497 88.7804 0.6789 88.7156 0.612943C88.6508 0.546987 88.5633 0.509996 88.4722 0.510001H77.3679C77.2773 0.510647 77.1906 0.54797 77.1265 0.613896C77.0625 0.679822 77.0262 0.769051 77.0256 0.862283V29.0512C76.9653 34.2688 78.0981 33.6118 79.9133 36.8419C81.4014 39.484 80.1317 43.2118 76.4454 43.4736C73.369 43.6909 70.6603 40.0804 72.9586 36.4632C75.3849 32.6465 76.4022 34.4146 72.9586 23.9448L65.1816 0.843964C65.1447 0.748555 65.0819 0.666119 65.0007 0.606563C64.9194 0.547007 64.8232 0.512864 64.7236 0.50824L50.993 0.50824C50.8936 0.512759 50.7976 0.546752 50.7165 0.606128C50.6355 0.665503 50.5728 0.747729 50.5361 0.842907L40.5977 30.008C40.5344 30.1915 40.432 30.1915 40.3707 30.008L30.5286 0.843964C30.4918 0.748714 30.4292 0.666385 30.3481 0.606842C30.2671 0.547298 30.1711 0.513064 30.0716 0.50824H16.3424C16.2428 0.512879 16.1466 0.546891 16.0652 0.606225C15.9838 0.665558 15.9207 0.747714 15.8834 0.842907L0.748048 45.2646C0.730957 45.3023 0.723862 45.344 0.727484 45.3855C0.731106 45.4269 0.745316 45.4666 0.768672 45.5006C0.792028 45.5346 0.823701 45.5616 0.860478 45.5789C0.897254 45.5963 0.937827 45.6033 0.978082 45.5992H12.9248C13.0234 45.5951 13.1186 45.5606 13.1979 45.5002C13.2773 45.4398 13.3372 45.3562 13.3698 45.2603L15.3032 38.6131C15.3357 38.5171 15.3955 38.4333 15.4748 38.3727C15.5542 38.312 15.6494 38.2774 15.7482 38.2732H30.5173C30.616 38.2774 30.7113 38.312 30.7906 38.3727C30.87 38.4333 30.9298 38.5171 30.9623 38.6131L32.8977 45.26C32.9302 45.3559 32.9901 45.4396 33.0695 45.5C33.1488 45.5605 33.244 45.5949 33.3427 45.5989H47.5785C47.6771 45.5947 47.7722 45.5602 47.8516 45.4998C47.9309 45.4394 47.9908 45.3558 48.0235 45.26L49.9579 38.6131C49.99 38.5169 50.0498 38.4329 50.1292 38.3722C50.2086 38.3115 50.304 38.277 50.4029 38.2732H65.174C65.2728 38.2772 65.3682 38.3118 65.4476 38.3724C65.527 38.4331 65.5867 38.517 65.619 38.6131L67.5514 45.26C67.5844 45.3557 67.6443 45.439 67.7236 45.4994C67.8029 45.5598 67.8979 45.5944 67.9964 45.5989H88.4715C88.563 45.5987 88.6508 45.5613 88.7156 45.4947C88.7805 45.4282 88.8171 45.338 88.8176 45.2438V33.2616C88.8289 33.0364 88.9133 32.8216 89.0572 32.6515L93.5826 27.8576C93.6097 27.8246 93.6443 27.7988 93.6833 27.7827C93.7223 27.7665 93.7646 27.7604 93.8064 27.7649C93.8482 27.7695 93.8884 27.7844 93.9233 27.8086C93.9582 27.8327 93.9868 27.8653 94.0067 27.9034L104.591 45.3009C104.652 45.388 104.731 45.4601 104.822 45.5119C104.913 45.5638 105.014 45.5941 105.118 45.6007H120.189C120.378 45.6007 120.45 45.4671 120.344 45.304" fill="#2067CA"/>
    </g>
    <defs>
    <clipPath id="clip0_2161_2829">
    <rect width="119.562" height="44.9839" fill="white" transform="translate(0.726562 0.508362)"/>
    </clipPath>
    </defs>
    </svg>