<svg xmlns="http://www.w3.org/2000/svg" width="172" height="65" viewBox="0 0 172 65" fill="none">
    <g clip-path="url(#clip0_2367_5535)">
      <path d="M88.6199 41.1138H75.4324C75.3737 41.1189 75.3147 41.1085 75.261 41.0838C75.2072 41.059 75.1604 41.0206 75.125 40.9722C75.0895 40.9238 75.0666 40.867 75.0583 40.807C75.05 40.747 75.0566 40.6858 75.0774 40.6291L81.8154 17.2144C81.8472 17.0371 81.9192 16.87 82.0254 16.7267C82.066 16.7267 82.161 16.9473 82.2369 17.2144L88.9733 40.6291C88.9947 40.6857 89.0017 40.7469 88.9937 40.807C88.9857 40.8671 88.9629 40.9241 88.9275 40.9726C88.8922 41.0211 88.8453 41.0596 88.7915 41.0843C88.7376 41.109 88.6786 41.1191 88.6199 41.1138ZM39.0629 41.1138H25.8754C25.8166 41.119 25.7576 41.1087 25.7038 41.084C25.65 41.0593 25.6031 41.0209 25.5676 40.9725C25.5322 40.9241 25.5092 40.8671 25.501 40.8071C25.4927 40.747 25.4994 40.6858 25.5204 40.6291L32.2598 17.2144C32.2922 17.0375 32.3635 16.8707 32.4684 16.7267C32.5731 16.8707 32.6445 17.0375 32.6769 17.2144L39.4134 40.6296C39.435 40.686 39.4422 40.7471 39.4344 40.8071C39.4266 40.8672 39.404 40.9242 39.3688 40.9727C39.3336 41.0213 39.2869 41.0597 39.2332 41.0845C39.1795 41.1093 39.1205 41.1196 39.0619 41.1143M171.497 64.5341L147.375 26.2752C147.303 26.1523 147.271 26.0091 147.283 25.8662C147.295 25.7233 147.351 25.5881 147.443 25.4801L169.66 0.841046C169.845 0.635989 169.776 0.469727 169.502 0.469727H148.022C147.713 0.487005 147.422 0.624187 147.207 0.853641L126.732 25.3758C126.555 25.5854 126.411 25.531 126.411 25.2514V0.976071C126.409 0.841941 126.356 0.713801 126.264 0.619471C126.171 0.525142 126.046 0.472238 125.916 0.472246H110.035C109.905 0.473169 109.781 0.526547 109.689 0.620833C109.598 0.71512 109.546 0.842733 109.545 0.976071V41.2912C109.459 48.7533 111.079 47.8137 113.675 52.4333C115.803 56.2119 113.987 61.5434 108.715 61.9178C104.315 62.2286 100.441 57.0649 103.728 51.8916C107.198 46.4332 108.653 48.9619 103.728 33.9882L92.6059 0.949872C92.5533 0.813421 92.4634 0.695522 92.3472 0.610346C92.231 0.52517 92.0934 0.476341 91.9509 0.469727L72.3138 0.469727C72.1716 0.47619 72.0343 0.524806 71.9184 0.609724C71.8024 0.694641 71.7128 0.812239 71.6603 0.948361L57.4466 42.6595C57.3561 42.922 57.2097 42.922 57.122 42.6595L43.046 0.949872C42.9934 0.813647 42.9038 0.695903 42.7879 0.610745C42.672 0.525587 42.5347 0.476626 42.3924 0.469727L22.7573 0.469727C22.6148 0.476362 22.4772 0.525005 22.3608 0.609862C22.2444 0.69472 22.1541 0.812217 22.1008 0.948361L0.454556 64.4792C0.430113 64.5332 0.419966 64.5928 0.425146 64.6521C0.430326 64.7114 0.450649 64.7682 0.484052 64.8168C0.517456 64.8654 0.562753 64.904 0.61535 64.9288C0.667948 64.9536 0.725974 64.9636 0.783546 64.9578H17.8695C18.0105 64.952 18.1466 64.9026 18.2601 64.8162C18.3736 64.7298 18.4592 64.6103 18.5059 64.4732L21.271 54.9665C21.3174 54.8291 21.403 54.7092 21.5165 54.6225C21.63 54.5358 21.7662 54.4863 21.9074 54.4803H43.0298C43.1711 54.4863 43.3073 54.5358 43.4208 54.6225C43.5343 54.7092 43.6198 54.8291 43.6663 54.9665L46.4343 64.4727C46.4808 64.6099 46.5664 64.7295 46.6799 64.816C46.7934 64.9024 46.9296 64.9517 47.0707 64.9573H67.4304C67.5714 64.9514 67.7075 64.902 67.821 64.8156C67.9344 64.7292 68.0201 64.6097 68.0668 64.4727L70.8334 54.9665C70.8793 54.8288 70.9648 54.7086 71.0784 54.6219C71.192 54.5351 71.3284 54.4857 71.4698 54.4803H92.5952C92.7365 54.486 92.8728 54.5355 92.9864 54.6222C93.0999 54.709 93.1854 54.8289 93.2316 54.9665L95.9952 64.4727C96.0424 64.6095 96.1281 64.7287 96.2415 64.815C96.3549 64.9014 96.4907 64.9509 96.6316 64.9573H125.915C126.046 64.9571 126.171 64.9035 126.264 64.8084C126.357 64.7132 126.409 64.5842 126.41 64.4495V47.3129C126.426 46.9908 126.547 46.6835 126.752 46.4403L133.224 39.5842C133.263 39.5369 133.313 39.5001 133.368 39.477C133.424 39.4539 133.485 39.4452 133.545 39.4516C133.604 39.4581 133.662 39.4795 133.712 39.514C133.762 39.5486 133.803 39.5951 133.831 39.6497L148.968 64.5311C149.055 64.6557 149.168 64.7588 149.299 64.833C149.429 64.9071 149.574 64.9505 149.723 64.9599H171.277C171.547 64.9599 171.65 64.7689 171.498 64.5356" fill="white"/>
    </g>
    <defs>
      <clipPath id="clip0_2367_5535">
        <rect width="171" height="64" fill="white" transform="translate(0.423828 0.469727)"/>
      </clipPath>
    </defs>
  </svg>