<svg width="276" height="277" viewBox="0 0 276 277" fill="none" xmlns="http://www.w3.org/2000/svg">
<path d="M129.383 116.485L129.065 119.113C128.497 119.399 127.8 119.556 127.006 119.556C125.108 119.556 123.811 118.891 123.367 117.179C122.416 118.73 120.422 119.556 117.762 119.556C114.756 119.556 112.854 118.162 112.854 115.502C112.854 113.032 114.785 111.292 119.028 110.498L122.828 109.769V109.007C122.828 107.331 121.845 106.255 120.136 106.255C118.299 106.255 116.972 106.952 116.493 108.947L113.04 107.488C113.705 104.797 116.079 103.088 119.943 103.088C124.343 103.088 127.131 104.986 127.131 108.914V115.406C127.131 116.228 127.478 116.61 128.304 116.61C128.683 116.61 129.065 116.578 129.38 116.485M122.828 114.076V112.432L119.439 113.193C118.045 113.508 117.316 114.015 117.316 115.059C117.316 116.103 117.98 116.61 119.121 116.61C120.765 116.61 122.824 115.756 122.824 114.076" fill="#0067CD"/>
<path d="M109.726 119.238H105.802V108.346L105.991 102.234H105.927L100.132 119.238H96.5542L90.792 102.234H90.7312L90.9528 108.346V119.238H86.9922V98.3408H93.3263L97.0939 109.74L98.4237 114.455H98.488L99.8463 109.772L103.585 98.3408H109.726V119.238Z" fill="#0067CD"/>
<path d="M138.44 112.239L135.556 115.313V119.238H131.22V96.4712H135.556V110.659L142.426 103.406H147.334L141.382 109.611L147.716 119.238H142.808L138.44 112.239Z" fill="#0067CD"/>
<path d="M149.035 98.8164C149.035 97.2651 149.922 96.4751 151.727 96.4751C153.532 96.4751 154.418 97.2687 154.418 98.8164C154.418 100.364 153.532 101.129 151.727 101.129C149.922 101.129 149.035 100.368 149.035 98.8164ZM153.879 119.238H149.543V103.406H153.879V119.238Z" fill="#0067CD"/>
<path d="M172.556 108.854V119.238H168.22V110.119C168.22 107.395 167.048 106.509 165.403 106.509C163.566 106.509 161.761 107.71 161.761 110.877V119.234H157.425V103.406H161.321L161.478 106.223C162.522 104.103 164.488 103.088 166.862 103.088C170.154 103.088 172.56 105.018 172.56 108.85" fill="#0067CD"/>
<path d="M191.108 120.661C191.108 124.114 187.562 126.045 182.59 126.045C177.142 126.045 174.801 124.461 174.801 122.152C174.801 120.758 175.752 119.618 177.682 119.142C176.384 118.57 175.341 117.526 175.341 115.975C175.341 114.424 176.352 113.316 177.875 112.776C176.227 111.857 175.373 110.37 175.373 108.468C175.373 105.144 178.161 103.085 182.654 103.085C183.827 103.085 184.903 103.21 185.821 103.496C186.329 101.155 187.784 99.507 190.633 99.6322L191.204 102.735C189.21 102.545 187.973 103.178 187.501 104.222C189.053 105.141 189.907 106.595 189.907 108.465C189.907 111.757 187.151 113.816 182.658 113.816C181.614 113.816 180.663 113.723 179.809 113.53C178.89 113.752 178.543 114.227 178.543 114.956C178.543 115.811 179.24 116.254 180.349 116.254H185.7C189.121 116.254 191.115 117.805 191.115 120.654M187.562 121.108C187.562 120.286 186.994 119.778 185.189 119.778H180.885C179.047 119.778 178.257 120.286 178.257 121.205C178.257 122.345 179.712 123.074 182.944 123.074C186.175 123.074 187.566 122.188 187.566 121.112M179.741 108.443C179.741 110.059 180.978 111.103 182.654 111.103C184.331 111.103 185.535 110.059 185.535 108.443C185.535 106.828 184.331 105.816 182.654 105.816C180.978 105.816 179.741 106.86 179.741 108.443Z" fill="#0067CD"/>
<path d="M93.7656 126.948H102.917C107.982 126.948 110.327 129.039 110.327 132.65C110.327 134.898 108.965 136.828 106.337 137.272V137.304C109.251 137.715 110.866 139.677 110.866 142.115C110.866 145.725 108.207 147.845 103.235 147.845H93.7692V126.948H93.7656ZM102.316 135.717C104.657 135.717 105.798 134.83 105.798 133.025C105.798 131.22 104.657 130.333 102.316 130.333H98.0086V135.717H102.316ZM102.856 144.553C105.197 144.553 106.337 143.57 106.337 141.797C106.337 140.024 105.197 139.073 102.856 139.073H98.0122V144.553H102.856Z" fill="#0067CD"/>
<path d="M128.478 141.575H117.268C117.711 143.856 119.105 144.932 121.225 144.932C123.062 144.932 124.263 144.235 124.707 142.969L128.253 144.267C127.238 146.798 124.8 148.16 121.221 148.16C115.967 148.16 112.989 145.121 112.989 139.928C112.989 134.734 115.87 131.695 120.968 131.695C126.065 131.695 128.599 134.669 128.599 139.863C128.599 140.306 128.535 141.161 128.474 141.575M117.236 138.537H124.614C124.267 136.164 122.937 134.895 120.943 134.895C118.948 134.895 117.586 136.128 117.239 138.537" fill="#0067CD"/>
<path d="M154.057 146.862C153.013 147.684 151.398 148.16 149.721 148.16C146.586 148.16 144.434 146.862 144.402 143.377V135.241H137.024V142.683C137.024 144.203 137.689 144.867 139.019 144.867C140.034 144.867 140.695 144.553 141.36 143.949L142.057 146.862C141.074 147.684 139.491 148.16 137.846 148.16C134.808 148.16 132.685 146.862 132.685 143.377V135.241H129.804V132.013H132.685V128.371L137.024 127.166V132.01H144.402V128.367L148.738 127.163V132.006H153.9V135.234H148.738V142.676C148.738 144.195 149.593 144.86 150.954 144.86C151.966 144.86 152.695 144.546 153.36 143.974L154.057 146.855V146.862Z" fill="#0067CD"/>
<path d="M170.741 141.575H159.531C159.974 143.856 161.368 144.932 163.488 144.932C165.325 144.932 166.526 144.235 166.969 142.969L170.515 144.267C169.5 146.798 167.062 148.16 163.484 148.16C158.23 148.16 155.252 145.121 155.252 139.928C155.252 134.734 158.133 131.695 163.23 131.695C168.328 131.695 170.862 134.669 170.862 139.863C170.862 140.306 170.798 141.161 170.737 141.575M159.502 138.537H166.88C166.533 136.164 165.204 134.895 163.209 134.895C161.214 134.895 159.852 136.128 159.506 138.537" fill="#0067CD"/>
<path d="M184.335 132.046L183.795 135.845C183.352 135.559 182.626 135.37 181.801 135.37C179.903 135.37 178.001 136.764 178.001 139.645V147.845H173.665V132.013H177.433L177.719 135.116C178.541 132.932 180.156 131.695 182.626 131.695C183.324 131.695 183.956 131.82 184.335 132.042" fill="#0067CD"/>
<path d="M101.043 153.479V174.376H96.6713V165.575H87.4596V174.376H83.0879V153.479H87.4596V162.058H96.6713V153.479H101.043Z" fill="#0067CD"/>
<path d="M120.682 171.62L120.364 174.247C119.796 174.533 119.099 174.69 118.305 174.69C116.407 174.69 115.109 174.025 114.666 172.317C113.715 173.868 111.721 174.69 109.061 174.69C106.055 174.69 104.153 173.296 104.153 170.637C104.153 168.167 106.084 166.426 110.327 165.632L114.126 164.903V164.142C114.126 162.465 113.143 161.389 111.435 161.389C109.597 161.389 108.271 162.086 107.792 164.081L104.343 162.622C105.008 159.931 107.381 158.222 111.245 158.222C115.646 158.222 118.434 160.12 118.434 164.049V170.54C118.434 171.362 118.78 171.745 119.606 171.745C119.985 171.745 120.368 171.713 120.682 171.62ZM114.126 169.214V167.57L110.738 168.331C109.344 168.646 108.618 169.153 108.618 170.197C108.618 171.241 109.283 171.748 110.423 171.748C112.067 171.748 114.126 170.894 114.126 169.214Z" fill="#0067CD"/>
<path d="M138.605 166.429C138.605 171.623 136.01 174.694 131.828 174.694C129.487 174.694 127.774 173.521 126.859 171.752V181.028H122.523V158.547H126.355L126.513 161.622C127.399 159.595 129.301 158.233 131.832 158.233C136.042 158.233 138.609 161.271 138.609 166.433M134.234 166.462C134.234 163.23 132.84 161.554 130.53 161.554C128.221 161.554 126.859 163.23 126.859 166.304V166.622C126.859 169.629 128.253 171.373 130.53 171.373C132.807 171.373 134.234 169.697 134.234 166.465" fill="#0067CD"/>
<path d="M157.59 166.429C157.59 171.623 154.995 174.694 150.812 174.694C148.471 174.694 146.759 173.521 145.844 171.752V181.028H141.508V158.547H145.34L145.497 161.622C146.384 159.595 148.285 158.233 150.816 158.233C155.027 158.233 157.593 161.271 157.593 166.433M153.222 166.462C153.222 163.23 151.828 161.554 149.518 161.554C147.209 161.554 145.847 163.23 145.847 166.304V166.622C145.847 169.629 147.241 171.373 149.518 171.373C151.795 171.373 153.222 169.697 153.222 166.465" fill="#0067CD"/>
<path d="M175.179 168.106H163.969C164.412 170.386 165.807 171.462 167.926 171.462C169.764 171.462 170.965 170.765 171.408 169.5L174.954 170.797C173.939 173.332 171.501 174.693 167.923 174.693C162.668 174.693 159.69 171.655 159.69 166.461C159.69 161.267 162.572 158.229 167.669 158.229C172.766 158.229 175.301 161.203 175.301 166.397C175.301 166.84 175.236 167.694 175.175 168.109M163.941 165.067H171.318C170.972 162.694 169.642 161.425 167.647 161.425C165.653 161.425 164.291 162.658 163.944 165.067" fill="#0067CD"/>
<path d="M193.239 163.991V174.379H188.903V165.26C188.903 162.536 187.73 161.65 186.086 161.65C184.249 161.65 182.443 162.851 182.443 166.018V174.379H178.107V158.547H182L182.157 161.364C183.201 159.244 185.167 158.229 187.541 158.229C190.833 158.229 193.242 160.159 193.242 163.991" fill="#0067CD"/>
<path d="M199.291 156.088H197.174V161.793H195.505V156.088H193.35V154.819H199.291V156.088ZM208.463 154.822V161.796H206.815V158.626L206.94 156.703H206.919L206.665 157.55L205.099 161.796H203.855L202.29 157.55L202.036 156.703H202.014L202.139 158.626V161.796H200.492V154.822H202.711L204.023 158.436L204.467 159.787H204.509L204.953 158.436L206.282 154.822H208.459H208.463Z" fill="#0067CD"/>
<path d="M137.904 236.187C84.1036 236.187 40.333 192.416 40.333 138.615C40.333 84.8146 84.1036 41.0439 137.904 41.0439C191.705 41.0439 235.476 84.8146 235.476 138.615C235.476 192.416 191.705 236.187 137.904 236.187ZM137.904 43.1637C85.2725 43.1637 42.4527 85.9834 42.4527 138.615C42.4527 191.247 85.2725 234.067 137.904 234.067C190.536 234.067 233.356 191.247 233.356 138.615C233.356 85.9834 190.536 43.1637 137.904 43.1637Z" fill="#80B3E6"/>
<path d="M137.904 276.494C61.8801 276.494 0.0292969 214.643 0.0292969 138.616C0.0292969 62.5881 61.8801 0.737305 137.904 0.737305C213.928 0.737305 275.779 62.5881 275.779 138.616C275.779 214.643 213.928 276.494 137.904 276.494ZM137.904 2.86775C63.0526 2.86775 2.15617 63.7641 2.15617 138.616C2.15617 213.467 63.0526 274.364 137.904 274.364C212.756 274.364 273.652 213.467 273.652 138.616C273.652 63.7641 212.756 2.86775 137.904 2.86775Z" fill="#80B3E6"/>
<path d="M92.4327 27.396C93.691 30.0555 92.6079 32.4826 89.5016 33.9518L86.6813 35.2887L88.9904 40.1572L86.1915 41.4834L79.8467 28.093L85.4695 25.43C88.5722 23.9608 91.1387 24.6579 92.4363 27.396M89.5802 28.7222C88.9368 27.3638 87.8358 27.0385 86.095 27.8643L83.7001 28.9974L85.6518 33.1153L88.0467 31.9822C89.7911 31.1565 90.2237 30.0805 89.5802 28.7186" fill="#0067CD"/>
<path d="M108.342 30.5208L108.721 32.3581C108.399 32.6798 107.97 32.9408 107.438 33.1195C106.162 33.5485 105.139 33.3947 104.457 32.3438C104.167 33.6021 103.012 34.603 101.225 35.1999C99.2019 35.8755 97.6112 35.3679 97.0143 33.5806C96.4602 31.9185 97.3646 30.317 100.038 28.83L102.43 27.486L102.258 26.9748C101.883 25.8453 100.978 25.3448 99.831 25.7273C98.5942 26.1419 97.8579 26.9069 97.9865 28.3546L95.3378 28.1509C95.1805 26.192 96.3887 24.5084 98.9874 23.6397C101.947 22.6496 104.249 23.3002 105.132 25.9382L106.594 30.2992C106.78 30.8532 107.098 31.0284 107.652 30.8461C107.906 30.7603 108.156 30.6531 108.346 30.5208M103.395 30.3778L103.023 29.2697L100.918 30.5422C100.053 31.0677 99.6773 31.5717 99.9132 32.2759C100.142 32.9586 100.71 33.1695 101.475 32.9122C102.583 32.5404 103.774 31.5038 103.395 30.3742" fill="#0067CD"/>
<path d="M109.454 30.2946L110.827 28.1212C111.724 29.308 112.993 29.4474 114.487 29.1293C115.781 28.854 116.425 28.3035 116.296 27.7102C116.189 27.2061 115.531 27.0238 113.858 27.0381C110.287 27.0882 108.922 26.2767 108.532 24.4537C108.153 22.6736 109.469 20.5574 112.718 19.864C115.241 19.3242 116.764 19.7818 118.108 21.1472L116.582 23.1276C115.703 22.1231 114.702 21.737 113.229 22.0516C111.999 22.3126 111.356 22.956 111.477 23.5279C111.603 24.1213 112.232 24.3787 114.158 24.3572C117.501 24.3107 118.891 25.0256 119.281 26.8487C119.703 28.8254 118.273 30.6199 114.998 31.3205C112.739 31.803 110.784 31.5743 109.454 30.2981" fill="#0067CD"/>
<path d="M120.939 27.9184L122.534 25.8988C123.298 27.1713 124.55 27.4465 126.065 27.2857C127.384 27.1463 128.078 26.6673 128.013 26.0632C127.96 25.5484 127.323 25.3018 125.658 25.1374C122.101 24.8121 120.828 23.8648 120.632 22.0096C120.442 20.2009 121.972 18.2349 125.275 17.8881C127.842 17.6165 129.307 18.2313 130.505 19.729L128.778 21.5342C128.01 20.4404 127.055 19.9578 125.558 20.1151C124.307 20.2474 123.599 20.8193 123.663 21.3984C123.727 21.9989 124.324 22.3206 126.24 22.5029C129.568 22.8067 130.877 23.6611 131.073 25.5163C131.284 27.5252 129.672 29.1623 126.348 29.5126C124.049 29.7557 122.13 29.3232 120.943 27.9148" fill="#0067CD"/>
<path d="M132.918 14.2953C132.893 13.1979 133.508 12.6224 134.784 12.5902C136.063 12.558 136.703 13.1049 136.732 14.2023C136.757 15.3033 136.142 15.8574 134.866 15.886C133.586 15.9181 132.946 15.3927 132.918 14.2953ZM136.707 28.6829L133.633 28.758L133.357 17.541L136.432 17.4659L136.707 28.6829Z" fill="#0067CD"/>
<path d="M150.751 23.6472C150.526 27.3004 148.267 29.3414 144.66 29.1234C141.053 28.9018 139.059 26.5998 139.28 22.9465C139.506 19.2933 141.765 17.2523 145.371 17.4739C148.978 17.6955 150.973 19.9975 150.751 23.6507M142.347 23.1324C142.201 25.5059 143.073 26.7284 144.796 26.8357C146.522 26.9429 147.534 25.8348 147.677 23.4577C147.824 21.0842 146.951 19.8617 145.228 19.7544C143.506 19.6472 142.49 20.7553 142.347 23.1324Z" fill="#0067CD"/>
<path d="M164.245 24.1828L162.926 31.4249L159.902 30.8744L161.06 24.5153C161.407 22.6136 160.703 21.8487 159.552 21.6378C158.272 21.4054 156.86 22.0131 156.46 24.2222L155.398 30.0523L152.374 29.5018L154.383 18.46L157.1 18.9533L156.853 20.9407C157.85 19.5931 159.348 19.1356 161.003 19.4394C163.298 19.8576 164.735 21.5091 164.245 24.1828Z" fill="#0067CD"/>
<path d="M176.463 33.4015L175.702 35.1173C175.255 35.1924 174.751 35.1566 174.215 34.9922C172.928 34.599 172.184 33.8769 172.238 32.6258C171.273 33.4801 169.75 33.6267 167.945 33.0726C165.908 32.4507 164.907 31.1102 165.457 29.3086C165.968 27.6357 167.641 26.8529 170.68 27.1961L173.407 27.4892L173.564 26.9744C173.911 25.8377 173.468 24.9047 172.31 24.5473C171.066 24.1648 170.018 24.365 169.282 25.6161L167.244 23.9146C168.252 22.2274 170.218 21.559 172.839 22.3632C175.823 23.2747 177.318 25.1407 176.503 27.8037L175.158 32.204C174.987 32.7617 175.144 33.0905 175.702 33.2621C175.959 33.3407 176.224 33.3979 176.46 33.3979M172.52 30.4132L172.864 29.2979L170.408 29.1084C169.396 29.0334 168.799 29.2264 168.581 29.9342C168.37 30.6205 168.71 31.1245 169.482 31.3604C170.597 31.7 172.17 31.5463 172.52 30.4096" fill="#0067CD"/>
<path d="M184.334 38.1135C183.444 38.378 182.239 38.2422 181.142 37.7846C179.09 36.9303 178.032 35.4969 178.979 33.2163L181.192 27.8866L179.304 27.1038L180.18 24.9876L182.068 25.7705L183.058 23.3862L186.225 23.7759L184.906 26.9465L188.266 28.3406L187.387 30.4567L184.026 29.0627L182.003 33.9348C181.592 34.9321 181.95 35.5898 182.84 35.9616C183.522 36.244 184.084 36.2368 184.677 36.0438L184.33 38.1099L184.334 38.1135Z" fill="#0067CD"/>
<path d="M196.627 40.3511L189.628 36.5906C189.142 38.1634 189.649 39.3037 190.972 40.0151C192.119 40.6299 193.106 40.5977 193.807 39.9579L195.587 41.9561C194.103 43.2 192.123 43.2322 189.889 42.0311C186.607 40.2689 185.767 37.3735 187.508 34.1277C189.249 30.8856 192.069 29.9526 195.254 31.6613C198.339 33.3163 199.022 36.0795 197.281 39.3216C197.131 39.5968 196.806 40.1116 196.627 40.3475M190.625 34.6854L195.233 37.159C195.812 35.5576 195.408 34.3208 194.16 33.6523C192.856 32.9517 191.647 33.2984 190.625 34.6854Z" fill="#0067CD"/>
<path d="M250.31 122.28L249.348 116.64L245.584 116.05L245.052 112.929L260.565 115.775L261.187 119.428L247.49 127.249L246.95 124.085L250.31 122.284V122.28ZM252.437 121.144L256.315 119.049L258.414 118.009L258.406 117.966L256.133 117.716L251.736 117.029L252.437 121.144Z" fill="#0067CD"/>
<path d="M246.982 139.091C244.537 139.213 243.043 136.771 242.868 133.247C242.675 129.39 243.715 127.674 245.352 127.592C246.339 127.542 247.179 128.174 247.586 129.525C247.944 128.585 248.648 127.81 249.745 127.756C250.864 127.699 251.665 128.378 252.101 129.436C252.694 128.235 253.717 127.577 255.064 127.513C257.42 127.395 258.975 129.297 259.132 132.482C259.175 133.311 259.121 134.076 258.953 134.737C260.63 135.012 261.849 135.985 261.859 138.008L259.682 138.523C259.747 137.104 259.254 136.253 258.496 135.953C257.899 137.086 256.898 137.74 255.575 137.808C253.245 137.926 251.69 136.046 251.529 132.861C251.493 132.121 251.529 131.445 251.629 130.83C251.44 130.187 251.089 129.958 250.574 129.983C249.97 130.012 249.681 130.523 249.72 131.306L249.91 135.095C250.031 137.518 249.002 138.984 246.986 139.084M246.542 136.592C247.125 136.564 247.465 136.142 247.4 134.866L247.25 131.817C247.186 130.516 246.8 129.972 246.149 130.004C245.341 130.044 244.88 131.102 244.991 133.39C245.098 135.563 245.781 136.632 246.542 136.592ZM255.236 130.609C254.092 130.666 253.395 131.577 253.456 132.768C253.516 133.954 254.299 134.769 255.443 134.716C256.565 134.659 257.262 133.768 257.202 132.582C257.141 131.391 256.358 130.555 255.236 130.612" fill="#0067CD"/>
<path d="M247.732 143.616L247.829 140.542L259.05 140.889L258.953 143.963L247.736 143.613L247.732 143.616ZM262.31 140.631C263.407 140.664 263.95 141.311 263.911 142.59C263.872 143.87 263.289 144.481 262.192 144.445C261.094 144.413 260.572 143.766 260.612 142.487C260.651 141.207 261.209 140.596 262.31 140.631Z" fill="#0067CD"/>
<path d="M250.856 149.815C249.805 149.722 249.401 149.958 249.33 150.784C249.283 151.298 249.323 151.617 249.459 152.124L247.36 151.667C247.114 151.148 247.01 150.283 247.074 149.547C247.267 147.377 248.358 146.505 250.685 146.712L263.65 147.863L263.378 150.927L250.856 149.815Z" fill="#0067CD"/>
<path d="M249.527 164.202L250.925 156.381C249.28 156.406 248.354 157.243 248.09 158.726C247.861 160.006 248.197 160.932 249.026 161.4L247.679 163.713C246.038 162.69 245.391 160.817 245.838 158.322C246.492 154.655 248.987 152.957 252.612 153.604C256.236 154.251 257.995 156.642 257.362 160.199C256.744 163.645 254.335 165.153 250.71 164.506C250.403 164.452 249.813 164.299 249.534 164.206M253.051 156.739L252.129 161.886C253.831 161.94 254.878 161.167 255.128 159.777C255.389 158.319 254.685 157.282 253.048 156.739" fill="#0067CD"/>
<path d="M45.7844 198.125C48.2008 201.803 47.3 205.667 43.3215 208.28C39.343 210.893 35.4289 210.16 33.0518 206.539C31.386 204.009 31.193 201.424 32.8945 199.312L35.4289 201.002C34.1992 202.4 34.1599 203.608 35.0965 205.034C36.4512 207.097 38.8033 207.404 41.5593 205.596C44.2974 203.798 45.0195 201.578 43.6504 199.497C42.6781 198.014 41.3234 197.506 39.5825 198.085L38.7318 195.237C41.6451 194.396 44.133 195.612 45.7844 198.125Z" fill="#0067CD"/>
<path d="M31.5284 184.07C34.817 182.462 37.7089 183.423 39.296 186.665C40.8831 189.911 39.8643 192.785 36.5793 194.394C33.2943 196.002 30.3989 195.041 28.8117 191.795C27.2246 188.549 28.2398 185.675 31.5284 184.067M35.2281 191.631C37.3657 190.587 37.9984 189.225 37.2406 187.674C36.4792 186.122 35.0172 185.786 32.8796 186.833C30.742 187.881 30.1093 189.239 30.8671 190.794C31.6285 192.345 33.0905 192.681 35.2281 191.634" fill="#0067CD"/>
<path d="M31.4176 177.918C32.4042 177.543 32.6651 177.153 32.3684 176.378C32.1861 175.895 32.011 175.627 31.6642 175.23L33.7518 174.723C34.2022 175.08 34.6704 175.813 34.935 176.506C35.7106 178.54 35.1101 179.802 32.9296 180.635L20.7654 185.271L19.668 182.397L31.414 177.922L31.4176 177.918Z" fill="#0067CD"/>
<path d="M29.0698 170.873C30.0778 170.562 30.3638 170.194 30.1207 169.4C29.9706 168.907 29.8133 168.625 29.4952 168.207L31.6113 167.838C32.0331 168.224 32.4585 168.986 32.673 169.697C33.3128 171.778 32.6301 172.996 30.3995 173.683L17.9565 177.504L17.0557 174.566L29.0698 170.877V170.873Z" fill="#0067CD"/>
<path d="M27.1033 155.37L28.9728 155.209C29.2516 155.563 29.4625 156.024 29.5769 156.574C29.8522 157.893 29.5769 158.891 28.4545 159.445C29.6699 159.881 30.5278 161.146 30.9138 162.994C31.3463 165.082 30.6565 166.601 28.8084 166.984C27.0926 167.341 25.6056 166.251 24.4439 163.42L23.3894 160.885L22.8639 160.996C21.6986 161.239 21.0909 162.076 21.3411 163.263C21.6056 164.539 22.2812 165.361 23.7325 165.404L23.2178 168.01C21.2553 167.934 19.7254 166.533 19.1678 163.852C18.5315 160.796 19.4502 158.591 22.174 158.022L26.6815 157.086C27.2535 156.968 27.4679 156.671 27.3464 156.099C27.2928 155.835 27.2141 155.577 27.1033 155.37ZM26.3777 160.263L25.2338 160.499L26.249 162.741C26.6708 163.663 27.1248 164.095 27.8504 163.945C28.5546 163.799 28.8299 163.259 28.669 162.469C28.4331 161.325 27.5394 160.02 26.3777 160.263Z" fill="#0067CD"/>
<path d="M22.3103 142.809C25.9563 142.491 28.2619 144.114 28.5229 147.091C28.6802 148.882 27.833 150.305 26.4568 151.059L28.6337 150.984L28.8696 153.69L12.7876 155.095L12.5195 152.031L19.2755 151.442C17.9672 150.902 17.0342 149.765 16.8877 148.11C16.6303 145.157 18.6392 143.134 22.3103 142.813M22.5569 145.897C20.2763 146.098 19.1754 147.184 19.3184 148.818C19.4578 150.43 20.7732 151.306 22.9001 151.12L23.1253 151.102C25.295 150.913 26.3924 149.801 26.253 148.214C26.11 146.58 24.8375 145.701 22.5569 145.897Z" fill="#0067CD"/>
<path d="M22.6054 129.201C26.2622 129.315 28.3712 131.517 28.2568 135.128C28.1424 138.738 25.9011 140.801 22.2408 140.686C18.584 140.572 16.475 138.37 16.5894 134.76C16.7038 131.149 18.945 129.083 22.6054 129.201ZM22.3373 137.612C24.7144 137.687 25.9119 136.783 25.9655 135.053C26.0191 133.326 24.8824 132.347 22.5053 132.272C20.1282 132.197 18.9307 133.101 18.8771 134.831C18.8235 136.558 19.9602 137.537 22.3373 137.612Z" fill="#0067CD"/>
<path d="M18.4029 118.266L21.023 118.995C20.78 119.281 20.5798 119.774 20.5047 120.353C20.3296 121.69 21.1303 123.152 23.1571 123.42L28.9193 124.182L28.5153 127.231L17.3877 125.765L17.738 123.116L19.9435 123.202C18.4851 122.423 17.7666 121.172 17.9954 119.438C18.0597 118.948 18.2098 118.516 18.3993 118.269" fill="#0067CD"/>
<path d="M30.3953 106.988L32.1576 107.632C32.2613 108.072 32.2577 108.579 32.129 109.126C31.8216 110.438 31.1532 111.224 29.9021 111.253C30.8171 112.161 31.0638 113.669 30.6313 115.507C30.1415 117.583 28.8726 118.67 27.0388 118.238C25.3338 117.837 24.4437 116.222 24.5867 113.165L24.7011 110.424L24.1756 110.298C23.0174 110.027 22.1166 110.527 21.8378 111.71C21.5376 112.979 21.8057 114.009 23.1068 114.659L21.5411 116.804C19.7932 115.907 18.9996 113.991 19.6252 111.324C20.3401 108.286 22.1023 106.674 24.8119 107.31L29.2944 108.365C29.8627 108.497 30.1809 108.318 30.3167 107.75C30.3775 107.489 30.4168 107.221 30.4025 106.985M27.6715 111.124L26.5348 110.856L26.5098 113.319C26.5026 114.331 26.735 114.917 27.457 115.088C28.1577 115.253 28.6367 114.881 28.8225 114.095C29.0906 112.958 28.8333 111.399 27.6751 111.128" fill="#0067CD"/>
<path d="M34.5777 98.8371C34.8994 99.7057 34.8422 100.918 34.4597 102.044C33.7448 104.145 32.3829 105.296 30.0452 104.499L24.5868 102.644L23.9291 104.578L21.7629 103.842L22.4206 101.908L19.9756 101.075L20.1579 97.8899L23.4072 98.998L24.5796 95.5557L26.7458 96.292L25.5769 99.7343L30.5706 101.432C31.5929 101.779 32.2256 101.379 32.5366 100.464C32.7761 99.7629 32.7297 99.2017 32.4973 98.6262L34.5813 98.8371H34.5777Z" fill="#0067CD"/>
<path d="M22.5056 92.0966C21.494 91.6677 21.2188 90.8705 21.7156 89.6945C22.2125 88.5149 22.9774 88.1539 23.989 88.5828C25.0042 89.0118 25.2544 89.7982 24.7576 90.9778C24.2607 92.1574 23.5208 92.5256 22.5056 92.0966ZM37.1792 94.5666L35.9817 97.4013L25.6441 93.0332L26.8416 90.1985L37.1792 94.5666Z" fill="#0067CD"/>
<path d="M33.3409 77.1797L41.2979 86.1697L39.6536 89.3082L27.7324 87.8748L29.2659 84.9508L38.5777 86.7202L31.8611 80.0036L33.3409 77.1797Z" fill="#0067CD"/>
<path d="M45.888 70.5414L41.4626 77.1401C42.9818 77.7799 44.165 77.3831 45.0015 76.1356C45.7271 75.0525 45.7914 74.0695 45.2195 73.3081L47.3857 71.7318C48.4759 73.326 48.3151 75.3027 46.9031 77.4082C44.8299 80.5037 41.863 81.0578 38.8067 79.006C35.7505 76.9542 35.0963 74.0588 37.1088 71.0562C39.0605 68.1465 41.8737 67.739 44.9335 69.7872C45.1945 69.9623 45.6735 70.3377 45.8915 70.5343M39.6611 75.9605L42.5743 71.6174C41.0373 70.8846 39.7683 71.167 38.9783 72.343C38.1526 73.5727 38.3814 74.8059 39.6611 75.964" fill="#0067CD"/>
<path d="M78.6557 242.728L73.7514 239.772L70.8453 242.242L68.1357 240.608L80.418 230.71L83.5886 232.623L80.5752 248.108L77.8264 246.449L78.6557 242.728ZM79.1847 240.373L80.1284 236.065L80.7111 233.795L80.6718 233.77L78.9989 235.332L75.6066 238.217L79.1847 240.373Z" fill="#0067CD"/>
<path d="M95.8667 246.074L92.8247 245.838C93.1321 244.498 92.7604 243.572 91.6773 243.082C90.0794 242.364 88.6818 243.064 87.7167 245.216C86.7301 247.407 87.2341 248.862 88.7497 249.545C89.9794 250.099 90.9695 249.756 91.6952 248.68L93.8649 250.639C92.6174 252.265 90.4512 252.819 87.8489 251.65C84.4495 250.124 83.4093 247.293 84.9178 243.933C86.4262 240.576 89.2573 239.483 92.5316 240.959C95.4199 242.256 96.1312 244.176 95.8667 246.074Z" fill="#0067CD"/>
<path d="M108.099 250.088L105.046 250.196C105.2 248.83 104.728 247.951 103.595 247.586C101.926 247.054 100.617 247.908 99.8989 250.153C99.1662 252.444 99.831 253.831 101.415 254.339C102.698 254.75 103.645 254.296 104.249 253.145L106.626 254.85C105.568 256.612 103.477 257.402 100.76 256.533C97.2109 255.397 95.8561 252.701 96.9785 249.195C98.1009 245.688 100.789 244.283 104.21 245.377C107.227 246.342 108.149 248.169 108.103 250.088" fill="#0067CD"/>
<path d="M120.847 255.311C120.142 258.9 117.633 260.627 114.087 259.933C110.541 259.236 108.868 256.691 109.569 253.102C110.273 249.513 112.782 247.787 116.328 248.48C119.874 249.174 121.547 251.722 120.843 255.311M112.586 253.692C112.128 256.026 112.829 257.352 114.523 257.685C116.218 258.017 117.369 257.052 117.826 254.718C118.284 252.384 117.583 251.058 115.885 250.725C114.191 250.393 113.04 251.358 112.582 253.692" fill="#0067CD"/>
<path d="M135.006 250.878L134.191 262.074L131.46 261.874L131.489 259.94C130.642 261.363 129.205 261.935 127.414 261.806C125.151 261.641 123.557 260.376 123.764 257.509L124.304 250.099L127.371 250.324L126.888 256.952C126.756 258.764 127.453 259.379 128.661 259.468C130.116 259.575 131.349 258.739 131.5 256.658L131.939 250.657L135.006 250.882V250.878Z" fill="#0067CD"/>
<path d="M148.914 254.257L149.264 261.613L146.194 261.76L145.887 255.304C145.794 253.374 144.936 252.788 143.767 252.841C142.466 252.902 141.229 253.817 141.336 256.058L141.618 261.978L138.548 262.125L138.012 250.915L140.768 250.782L140.975 252.773C141.643 251.236 142.998 250.45 144.682 250.371C147.012 250.261 148.782 251.547 148.914 254.26" fill="#0067CD"/>
<path d="M160.703 259.276C160.081 259.958 158.976 260.466 157.8 260.645C155.602 260.973 153.957 260.291 153.589 257.853L152.731 252.148L150.712 252.452L150.372 250.189L152.392 249.885L152.006 247.333L154.919 246.032L155.43 249.428L159.026 248.884L159.366 251.147L155.77 251.69L156.556 256.906C156.717 257.971 157.364 258.35 158.318 258.207C159.051 258.096 159.53 257.799 159.934 257.327L160.706 259.276H160.703Z" fill="#0067CD"/>
<path d="M174.018 254.742L174.264 256.605C173.925 256.901 173.471 257.13 172.928 257.269C171.623 257.605 170.615 257.377 170.007 256.279C169.628 257.512 168.402 258.428 166.576 258.896C164.509 259.425 162.958 258.803 162.49 256.976C162.057 255.278 163.076 253.741 165.85 252.451L168.334 251.282L168.198 250.76C167.902 249.609 167.04 249.041 165.864 249.341C164.602 249.666 163.812 250.378 163.837 251.832L161.21 251.439C161.192 249.473 162.526 247.879 165.178 247.203C168.198 246.428 170.45 247.243 171.14 249.942L172.284 254.403C172.431 254.967 172.735 255.168 173.299 255.021C173.56 254.953 173.818 254.864 174.018 254.746M169.092 254.242L168.803 253.112L166.608 254.231C165.707 254.696 165.296 255.171 165.478 255.89C165.657 256.587 166.207 256.837 166.99 256.637C168.12 256.347 169.385 255.396 169.088 254.245" fill="#0067CD"/>
<path d="M186.071 246.292C187.398 249.703 186.486 252.369 183.705 253.452C182.032 254.103 180.427 253.692 179.319 252.58L180.005 254.65L177.475 255.636L171.623 240.598L174.49 239.483L176.949 245.799C177.099 244.391 177.929 243.179 179.476 242.575C182.236 241.499 184.742 242.861 186.079 246.292M183.176 247.393C182.347 245.259 180.996 244.509 179.466 245.102C177.961 245.688 177.489 247.197 178.261 249.184L178.343 249.395C179.133 251.426 180.506 252.165 181.993 251.586C183.519 250.993 184.009 249.524 183.176 247.393Z" fill="#0067CD"/>
<path d="M192.255 245.399C192.727 246.342 193.138 246.564 193.882 246.192C194.343 245.963 194.597 245.763 194.954 245.377L195.669 247.407C195.358 247.89 194.675 248.43 194.011 248.762C192.062 249.735 190.747 249.263 189.703 247.175L183.884 235.526L186.636 234.149L192.255 245.399Z" fill="#0067CD"/>
<path d="M204.78 237.095L198.014 241.262C199.129 242.474 200.369 242.607 201.649 241.817C202.757 241.134 203.225 240.265 203.022 239.336L205.645 238.8C205.974 240.705 205.009 242.435 202.85 243.765C199.679 245.72 196.752 244.991 194.822 241.856C192.891 238.721 193.499 235.815 196.577 233.92C199.558 232.083 202.289 232.88 204.219 236.015C204.384 236.283 204.662 236.823 204.78 237.095ZM196.863 239.439L201.317 236.698C200.223 235.393 198.95 235.125 197.746 235.865C196.484 236.641 196.176 237.856 196.863 239.439Z" fill="#0067CD"/>
</svg>
