<svg width="74" height="75" viewBox="0 0 74 75" fill="none" xmlns="http://www.w3.org/2000/svg">
<g clip-path="url(#clip0_3995_10075)">
<mask id="mask0_3995_10075" style="mask-type:luminance" maskUnits="userSpaceOnUse" x="22" y="24" width="19" height="18">
<path d="M40.0046 24.521H22.8571V41.6671H40.0046V24.521Z" fill="white"/>
</mask>
<g mask="url(#mask0_3995_10075)">
<mask id="mask1_3995_10075" style="mask-type:luminance" maskUnits="userSpaceOnUse" x="22" y="24" width="19" height="18">
<path d="M40.0032 24.5205H22.8558V41.6673H40.0032V24.5205Z" fill="white"/>
</mask>
<g mask="url(#mask1_3995_10075)">
<path d="M31.411 41.6668C29.6631 41.6668 27.9583 41.1303 26.4982 40.1032C24.6256 38.7863 23.3779 36.8185 22.9859 34.5628C22.5926 32.3072 23.1017 30.0338 24.4193 28.1611C25.7363 26.2885 27.7034 25.0408 29.9597 24.6482C31.3651 24.4022 32.819 24.5132 34.164 24.9675C34.6574 25.1333 35.1384 25.3464 35.594 25.5999C36.395 26.0453 37.1179 26.6133 37.7393 27.2882C38.8535 28.4969 39.5914 29.9968 39.8744 31.622C40.267 33.8776 39.7579 36.1511 38.441 38.0244C37.124 39.8963 35.1562 41.1447 32.8999 41.5373C32.4031 41.6237 31.9057 41.6668 31.411 41.6668ZM31.4336 26.7572C31.0691 26.7572 30.7039 26.7887 30.3441 26.8511C26.9011 27.4499 24.5893 30.7381 25.1881 34.1791C25.787 37.6215 29.0717 39.9306 32.5162 39.3345C34.1832 39.0439 35.6379 38.1224 36.6115 36.7383C37.5845 35.3542 37.9613 33.6735 37.6715 32.0057C37.4625 30.8032 36.9164 29.6966 36.0942 28.8032C35.6338 28.3037 35.0993 27.8836 34.5066 27.5534C34.1688 27.3656 33.8132 27.208 33.4487 27.0847C32.8005 26.8668 32.1181 26.7558 31.4336 26.7558" fill="white"/>
</g>
</g>
<mask id="mask2_3995_10075" style="mask-type:luminance" maskUnits="userSpaceOnUse" x="47" y="37" width="18" height="19">
<path d="M64.5369 37.9526H47.3956V55.0987H64.5369V37.9526Z" fill="white"/>
</mask>
<g mask="url(#mask2_3995_10075)">
<mask id="mask3_3995_10075" style="mask-type:luminance" maskUnits="userSpaceOnUse" x="47" y="37" width="18" height="19">
<path d="M64.539 37.9521H47.3929V55.0989H64.539V37.9521Z" fill="white"/>
</mask>
<g mask="url(#mask3_3995_10075)">
<path d="M55.9488 55.0991C54.1995 55.0991 52.4954 54.5633 51.0353 53.5356C49.162 52.2179 47.915 50.2515 47.5224 47.9945C47.1291 45.7395 47.6382 43.4654 48.9558 41.5928C50.2734 39.7208 52.2412 38.4724 54.4969 38.0798C59.1534 37.2699 63.6009 40.3978 64.4115 45.0543C65.2228 49.7108 62.0935 54.1584 57.437 54.969C56.9396 55.0553 56.4428 55.0991 55.9488 55.0991ZM55.97 40.1888C55.611 40.1888 55.2465 40.2197 54.8806 40.2827C51.4382 40.8822 49.1257 44.1698 49.7246 47.6108C50.3234 51.0531 53.6096 53.3629 57.0526 52.7661C58.7204 52.4756 60.175 51.554 61.1486 50.1699C62.1216 48.7858 62.4985 47.1051 62.2079 45.4373C61.6721 42.3622 58.9896 40.1881 55.9693 40.1881" fill="white"/>
</g>
</g>
<path d="M11.4899 39.4406C11.8256 41.464 10.4512 43.4065 8.42164 43.7772C6.39075 44.1485 4.47291 42.809 4.13786 40.7843C3.80212 38.7603 5.17523 36.8184 7.20543 36.4471C9.23701 36.0757 11.1548 37.4159 11.4899 39.4406Z" fill="white"/>
<path d="M58.5168 39.7319L56.6381 38.5191L65.122 25.3779L67.0008 26.59L58.5168 39.7319Z" fill="white"/>
<path d="M69.8621 24.4446C70.1979 26.4693 68.8234 28.4105 66.7939 28.7818C64.763 29.1532 62.8452 27.813 62.5101 25.7883C62.1744 23.7642 63.5475 21.8224 65.5777 21.4511C67.6093 21.0811 69.5271 22.4213 69.8621 24.4446Z" fill="white"/>
<path d="M36.5245 3.25216C36.8595 5.27689 35.4857 7.21802 33.4562 7.58939C31.4253 7.96007 29.5075 6.62053 29.1717 4.59581C28.8367 2.57178 30.2098 0.629961 32.24 0.25859C34.2709 -0.11278 36.1887 1.22744 36.5245 3.25216Z" fill="white"/>
<path d="M17.1687 13.9297C17.5037 15.9544 16.1299 17.8956 14.1004 18.2669C12.0695 18.6376 10.1517 17.2981 9.81595 15.2741C9.4809 13.2493 10.854 11.3075 12.8842 10.9361C14.9151 10.5655 16.8336 11.905 17.1687 13.9297Z" fill="white"/>
<path d="M61.5104 63.22C62.8904 64.7383 62.7897 67.1152 61.2857 68.5281C59.7817 69.9416 57.4432 69.856 56.0632 68.3383C54.6826 66.8199 54.7833 64.443 56.2873 63.0302C57.7913 61.6166 60.1298 61.7023 61.5104 63.22Z" fill="white"/>
<path d="M29.6 69.783C29.9439 71.8057 28.5784 73.7537 26.5488 74.1326C24.52 74.5115 22.596 73.1801 22.2527 71.1568C21.9088 69.1341 23.2743 67.1862 25.3032 66.8066C27.3327 66.4277 29.256 67.7603 29.6 69.783Z" fill="white"/>
<path d="M13.6024 12.9427L11.8502 14.3325L23.8485 29.4598L25.6007 28.07L13.6024 12.9427Z" fill="white"/>
<path d="M34.1365 2.11358L31.9008 2.12256L31.9959 25.8346L34.2317 25.8256L34.1365 2.11358Z" fill="white"/>
<path d="M8.18588 41.1666L7.44177 39.0583L23.7142 33.3164L24.4583 35.4254L8.18588 41.1666Z" fill="white"/>
<path d="M57.8837 52.8939L57.7624 66.7944L59.9981 66.8139L60.1194 52.9134L57.8837 52.8939Z" fill="white"/>
<path d="M48.8484 49.1452L24.9925 69.7808L26.4556 71.4722L50.3115 50.8367L48.8484 49.1452Z" fill="white"/>
<path d="M48.2028 45.2148L36.1476 39.1708L37.1494 37.1714L49.2052 43.2154L48.2028 45.2148Z" fill="white"/>
</g>
<defs>
<clipPath id="clip0_3995_10075">
<rect width="74" height="74" fill="white" transform="translate(0 0.196777)"/>
</clipPath>
</defs>
</svg>
