<svg width="74" height="75" viewBox="0 0 74 75" fill="none" xmlns="http://www.w3.org/2000/svg">
<g clip-path="url(#clip0_3995_10069)">
<path d="M36.8506 69.8442L35.1945 69.8189L17.1275 50.5261C13.163 46.2931 9.79054 42.7712 6.21799 39.3446L7.01486 37.3624H25.4326L26.2281 37.6816L31.8199 43.0281L39.8373 23.771L41.9223 23.6833L49.0236 37.363H66.43C69.8902 33.9241 71.7559 29.371 71.6943 24.4891C71.5716 14.7684 63.592 6.85653 53.9076 6.85242H53.9014C47.1647 6.85242 41.083 10.6059 38.0284 16.6485H35.9722C32.8511 10.4757 26.3672 6.63385 19.4941 6.8627C10.1482 7.17309 2.60021 14.7691 2.31106 24.1561C2.2768 25.2825 2.34669 26.4131 2.52004 27.5169L0.244543 27.8732C0.0492652 26.6282 -0.0302162 25.3552 0.00883933 24.0855C0.336358 13.4871 8.86075 4.91061 19.4195 4.56048C26.5056 4.32409 33.1992 7.90281 36.9986 13.8105C40.6787 8.04944 46.9845 4.54883 53.9021 4.54883H53.9089C64.8479 4.55362 73.8588 13.4843 73.9986 24.4596C74.0705 30.1426 71.8299 35.4315 67.6901 39.3501L66.898 39.6659H48.3254L47.3031 39.0445L41.0151 26.9338L33.302 45.4633L31.4431 45.8525L24.9715 39.6653H9.84947C12.732 42.5143 15.5762 45.4982 18.809 48.9509L36.0605 67.3728L55.3526 48.0074L56.9772 49.6409L56.403 50.2151L36.8512 69.8436L36.8506 69.8442Z" fill="white"/>
</g>
<defs>
<clipPath id="clip0_3995_10069">
<rect width="74" height="74" fill="white" transform="translate(0 0.196777)"/>
</clipPath>
</defs>
</svg>
